<?xml version="1.0" encoding="UTF-8"?>
<svg xmlns="http://www.w3.org/2000/svg">
  <defs>
    <symbol id="en-gb" viewBox="0 0 512 512">
      <defs>
        <mask id="e" maskUnits="userSpaceOnUse">
          <circle cx="256" cy="256" r="256" fill="#fff"></circle>
        </mask>
        <mask id="f" maskUnits="userSpaceOnUse">
          <circle cx="256" cy="256" r="256" fill="#fff"></circle>
        </mask>
        <mask id="g" maskUnits="userSpaceOnUse">
          <circle cx="256" cy="256" r="256" fill="#fff"></circle>
        </mask>
        <mask id="h" maskUnits="userSpaceOnUse">
          <circle cx="256" cy="256" r="256" fill="#fff"></circle>
        </mask>
      </defs>
      <path d="m0 0h47.4l76.4 21 65.4-21h33.4l34.2 16.6 32.6-16.6h33.4l70.4 22.8 71.6-22.8h15.8l12.2 7.3 19.2-7.3v47.3l-19.9 78 19.9 63.9v33.4l-16.4 30.6 16.4 36.2v33.4l-15.1 68.7 15.1 73.3v15.9l-7.8 10.9 7.8 20.4h-47.3l-71-17.5-70.9 17.5h-33.4l-30-19.7-36.8 19.7h-33.3l-63.7-20.2-78.3 20.2h-15.9l-10.6-8-20.8 8v-47.3l22.8-79-22.8-62.8v-33.4l25.3-32-25.3-34.9v-33.4l22.2-64.6-22.2-77.4v-15.8l8-7.8z" fill="#eee" mask="url(#h)"></path>
      <path d="m47.4 0 142 142v-142zm275 0v142l142-142zm-323 47.2v142h142zm512 0.1-142 142h142zm-512 276v142l142-142zm370 0 142 142v-142zm-181 47.2-142 142h142zm134 0.1v142h142z" fill="#0052b4" mask="url(#g)"></path>
      <path d="m223 0v223h-223v66.8h223v223h66.8v-223h223v-66.8h-223v-223z" fill="#d80027" mask="url(#f)"></path>
      <path d="m0 0v31.4l158 158h31.5zm481 0-158 158v31.5l189-189zm-291 323-189 189h31.4l158-158zm134 0 189 189h0.1v-31.3l-158-158z" fill="#d80027" mask="url(#e)"></path>
    </symbol>
    <symbol id="about" viewBox="0 0 471.023 471.023" style="enable-background:new 0 0 471.023 471.023;" xml:space="preserve">
      <path d="M297.662,349.34c-5.374-7.683-9.313-20.278-1.01-69.361c14.189-14.058,25.928-27.078,28.648-30.128l0.733-0.821    l2.368-12.976c20.311-43.728,83.158-202.962-66.84-225.785C91.88-15.559,93.441,185.748,154.925,246.148l0.525,2.881l0.741,0.821    c2.717,3.05,14.459,16.078,28.659,30.137c7.051,41.761,5.252,57.121,1.116,65.633C121.8,358.629,16.571,390.315,0,463.03h235.511    h235.513C444.069,396.463,358.006,364.295,297.662,349.34z M188.275,272.312c-1.311-1.302-2.607-2.612-3.896-3.923    c-7.867-7.983-15.356-15.97-21.596-22.947l-7.835-42.877c-0.415-2.473-0.767-4.869-1.146-7.288    c0.291-40.93,5.975-91.211,32.118-91.794l59.22,45.14v-14.719l33.117,14.719l-6.023-27.475l14.051,4.905l5.021-15.699    l-12.043-30.42l53.15,55.813c0.337,19.432-1.61,41.701-5.858,66.772l-7.851,42.923c-6.24,6.97-13.722,14.964-21.588,22.947    c-1.287,1.311-2.589,2.621-3.896,3.923c-1.318,1.318-2.649,2.621-3.983,3.928c-19.74,19.34-40.126,36.628-48.49,36.628    c-8.369,0-28.749-17.288-48.491-36.628C190.92,274.934,189.594,273.631,188.275,272.312z M240.748,424.438    c-39.134,0-70.983-18.049-70.983-40.234c0-7.182,3.565-14.314,10.307-20.622l0.894-0.842c1.659-1.459,3.486-2.869,5.458-4.204    l1.176-1.186c2.817-3.551,5.677-7.146,7.574-13.525c2.787-9.354,3.488-24.777-0.946-54.745    c17.418,16.406,36.332,31.654,46.504,31.654c10.171,0,29.086-15.248,46.502-31.654c-4.945,33.365-3.486,48.698,0.164,57.835    c1.868,4.669,4.316,7.742,6.761,10.816l0.874,0.821c2.039,1.378,3.919,2.821,5.574,4.315l0.789,0.737    c6.736,6.3,10.304,13.438,10.304,20.623C311.724,406.39,279.885,424.438,240.748,424.438z"></path>
    </symbol>
    <symbol id="code" viewBox="0 0 16 16">
      <path d="M10.478 1.647a.5.5 0 1 0-.956-.294l-4 13a.5.5 0 0 0 .956.294l4-13zM4.854 4.146a.5.5 0 0 1 0 .708L1.707 8l3.147 3.146a.5.5 0 0 1-.708.708l-3.5-3.5a.5.5 0 0 1 0-.708l3.5-3.5a.5.5 0 0 1 .708 0zm6.292 0a.5.5 0 0 0 0 .708L14.293 8l-3.147 3.146a.5.5 0 0 0 .708.708l3.5-3.5a.5.5 0 0 0 0-.708l-3.5-3.5a.5.5 0 0 0-.708 0z"></path>
    </symbol>
    <symbol id="config" stroke="currentColor" fill="none" stroke-width="3" viewBox="0 0 64 64">
      <path d="M45,14.67l-2.76,2a1,1,0,0,1-1,.11L37.65,15.3a1,1,0,0,1-.61-.76l-.66-3.77a1,1,0,0,0-1-.84H30.52a1,1,0,0,0-1,.77l-.93,3.72a1,1,0,0,1-.53.65l-3.3,1.66a1,1,0,0,1-1-.08l-3-2.13a1,1,0,0,0-1.31.12l-3.65,3.74a1,1,0,0,0-.13,1.26l1.87,2.88a1,1,0,0,1,.1.89L16.34,27a1,1,0,0,1-.68.63l-3.85,1.06a1,1,0,0,0-.74,1v4.74a1,1,0,0,0,.8,1l3.9.8a1,1,0,0,1,.72.57l1.42,3.15a1,1,0,0,1-.05.92l-2.13,3.63a1,1,0,0,0,.17,1.24L19.32,49a1,1,0,0,0,1.29.09L23.49,47a1,1,0,0,1,1-.1l3.74,1.67a1,1,0,0,1,.59.75l.66,3.79a1,1,0,0,0,1,.84h4.89a1,1,0,0,0,1-.86l.58-4a1,1,0,0,1,.58-.77l3.58-1.62a1,1,0,0,1,1,.09l3.14,2.12a1,1,0,0,0,1.3-.15L50,45.06a1,1,0,0,0,.09-1.27l-2.08-3a1,1,0,0,1-.09-1l1.48-3.43a1,1,0,0,1,.71-.59L53.77,35a1,1,0,0,0,.8-1V29.42a1,1,0,0,0-.8-1l-3.72-.78a1,1,0,0,1-.73-.62l-1.45-3.65a1,1,0,0,1,.11-.94l2.15-3.14A1,1,0,0,0,50,18l-3.71-3.25A1,1,0,0,0,45,14.67Z"></path>
      <circle cx="32.82" cy="31.94" r="9.94"></circle>
    </symbol>
    <symbol id="contact" viewBox="0 0 100 100">
      <path d="m100 21v57.1c0 1.89-0.753 3.71-2.09 5.05-1.34 1.34-3.16 2.09-5.05 2.09h-85.7c-1.89 0-3.71-0.753-5.05-2.09-1.34-1.34-2.09-3.16-2.09-5.05v-57.1c0-1.89 0.753-3.71 2.09-5.05 1.34-1.34 3.16-2.09 5.05-2.09h85.7c1.89 0 3.71 0.753 5.05 2.09 1.34 1.34 2.09 3.16 2.09 5.05zm-8.83-1.68-36.1 36.1c-1.34 1.34-3.16 2.09-5.05 2.09s-3.71-0.752-5.05-2.09l-36.1-36.1c-0.929-0.928-2.44-0.928-3.37 0-0.928 0.929-0.928 2.44 0 3.37l26.9 26.9-26.9 26.9c-0.928 0.929-0.928 2.44 0 3.37 0.929 0.928 2.44 0.928 3.37 0l26.9-26.9 5.87 5.87c2.23 2.23 5.26 3.49 8.42 3.49s6.19-1.25 8.42-3.49l5.87-5.87 26.9 26.9c0.929 0.928 2.44 0.928 3.37 0 0.928-0.929 0.928-2.44 0-3.37l-26.9-26.9 26.9-26.9c0.928-0.929 0.928-2.44 0-3.37-0.929-0.928-2.44-0.928-3.37 0z" fill-rule="evenodd"></path>
    </symbol>
    <symbol id="eye" viewBox="0 0 16 16" stroke="none">
      <path d="M16 8s-3-5.5-8-5.5S0 8 0 8s3 5.5 8 5.5S16 8 16 8zM1.173 8a13.133 13.133 0 0 1 1.66-2.043C4.12 4.668 5.88 3.5 8 3.5c2.12 0 3.879 1.168 5.168 2.457A13.133 13.133 0 0 1 14.828 8c-.058.087-.122.183-.195.288-.335.48-.83 1.12-1.465 1.755C11.879 11.332 10.119 12.5 8 12.5c-2.12 0-3.879-1.168-5.168-2.457A13.134 13.134 0 0 1 1.172 8z"></path>
      <path d="M8 5.5a2.5 2.5 0 1 0 0 5 2.5 2.5 0 0 0 0-5zM4.5 8a3.5 3.5 0 1 1 7 0 3.5 3.5 0 0 1-7 0z"></path>
    </symbol>
    <symbol id="filter" viewBox="0 0 16 16">
      <path d="M1.5 1.5A.5.5 0 0 1 2 1h12a.5.5 0 0 1 .5.5v2a.5.5 0 0 1-.128.334L10 8.692V13.5a.5.5 0 0 1-.342.474l-3 1A.5.5 0 0 1 6 14.5V8.692L1.628 3.834A.5.5 0 0 1 1.5 3.5v-2z"></path>
    </symbol>
    <symbol id="home" viewBox="0 0 100 100">
      <path d="m8.39 57.6h2.03c0.803 0.0023 1.45 0.654 1.45 1.46v29.7c0 2.24 0.889 4.38 2.47 5.96 1.58 1.58 3.73 2.47 5.96 2.47h14.5c1.23 0 2.42-0.49 3.29-1.36 0.873-0.873 1.36-2.06 1.36-3.29v-17.1c-0.0592-2.67 0.862-5.27 2.59-7.3 1.73-2.04 4.14-3.37 6.78-3.74 2.95-0.307 5.9 0.651 8.1 2.64 2.21 1.99 3.47 4.81 3.47 7.78v17.7c0 1.23 0.49 2.42 1.36 3.29 0.873 0.873 2.06 1.36 3.29 1.36h14.5c2.24 0 4.38-0.888 5.97-2.47 1.58-1.58 2.47-3.73 2.47-5.96v-29.7c0-0.803 0.649-1.45 1.45-1.46h2.04c2.28-0.0016 4.47-0.927 6.05-2.57 1.59-1.64 2.44-3.85 2.37-6.13-0.0717-2.28-1.07-4.44-2.75-5.97l-41.6-37.8c-1.55-1.42-3.57-2.21-5.67-2.21s-4.13 0.79-5.67 2.21l-41.2 37.5c-1.19 1.03-2.09 2.36-2.6 3.85s-0.611 3.09-0.295 4.64c0.424 1.86 1.47 3.52 2.96 4.7s3.35 1.82 5.25 1.82z"></path>
    </symbol>
    <symbol id="info" viewBox="0 0 56 56">
      <path d="M 27.9999 51.9063 C 41.0546 51.9063 51.9063 41.0781 51.9063 28 C 51.9063 14.9453 41.0312 4.0937 27.9765 4.0937 C 14.8983 4.0937 4.0937 14.9453 4.0937 28 C 4.0937 41.0781 14.9218 51.9063 27.9999 51.9063 Z M 27.9999 47.9219 C 16.9374 47.9219 8.1014 39.0625 8.1014 28 C 8.1014 16.9609 16.9140 8.0781 27.9765 8.0781 C 39.0155 8.0781 47.8983 16.9609 47.9219 28 C 47.9454 39.0625 39.0390 47.9219 27.9999 47.9219 Z M 27.7890 19.6563 C 29.4999 19.6563 30.8358 18.2968 30.8358 16.6094 C 30.8358 14.8984 29.4999 13.5390 27.7890 13.5390 C 26.0780 13.5390 24.7421 14.8984 24.7421 16.6094 C 24.7421 18.2968 26.0780 19.6563 27.7890 19.6563 Z M 23.8749 40.8906 L 33.4374 40.8906 C 34.3983 40.8906 35.1483 40.2109 35.1483 39.25 C 35.1483 38.3359 34.3983 37.6094 33.4374 37.6094 L 30.5312 37.6094 L 30.5312 25.6797 C 30.5312 24.4141 29.8749 23.5703 28.7030 23.5703 L 24.2733 23.5703 C 23.3358 23.5703 22.5858 24.2968 22.5858 25.2109 C 22.5858 26.1719 23.3358 26.8516 24.2733 26.8516 L 26.8046 26.8516 L 26.8046 37.6094 L 23.8749 37.6094 C 22.9374 37.6094 22.1874 38.3359 22.1874 39.25 C 22.1874 40.2109 22.9374 40.8906 23.8749 40.8906 Z"></path>
    </symbol>
    <symbol id="menu" viewBox="0 0 500 500">
      <g transform="matrix(2.24 0 0 3.75 -535 -799)" stroke-width=".345">
        <path d="m248 236h136c5.09 0 9.22-5.02 9.22-11.2s-4.13-11.2-9.22-11.2h-136c-5.1 0-9.22 5.02-9.22 11.2s4.13 11.2 9.22 11.2z"></path>
        <path d="m450 269h-165c-6.18 0-11.2 5.02-11.2 11.2s5.02 11.2 11.2 11.2h165c6.18 0 11.2-5.02 11.2-11.2s-5.02-11.2-11.2-11.2z"></path>
        <path d="m384 324h-136c-5.1 0-9.22 5.02-9.22 11.2s4.13 11.2 9.22 11.2h136c5.09 0 9.22-5.02 9.22-11.2s-4.12-11.2-9.21-11.2z"></path>
      </g>
    </symbol>
    <symbol id="placeholder" viewBox="0 0 490 490" xml:space="preserve">
      <path d="M245,0C159.8,0,90.6,69.2,90.6,154.4S245,490,245,490s154.4-250.4,154.4-335.6S330.2,0,245,0z M245,239.6    c-48.2,0-87.1-38.9-87.1-87.1s38.9-87.1,87.1-87.1s87.1,38.9,87.1,87.1C332.1,200.3,293.2,239.6,245,239.6z"></path>
    </symbol>
    <symbol id="question" viewBox="0 0 100 100">
      <path d="m61.2 88.3c0 6.44-5.22 11.7-11.7 11.7-6.44 0-11.7-5.22-11.7-11.7 0-6.44 5.22-11.7 11.7-11.7 6.44-0.111 11.7 5.11 11.7 11.7z"></path>
      <path d="m19.5 30.4c0 5.11 9.11 7.56 11.6 0.667 3.22-9.22 15.7-18.9 25-11.8 13.2 10-11 29.3-14.3 36.6-1.11 2.22-1.44 5.33-1.56 8.56 0 1.67 1.44 3 3.11 3h11.9c1.67 0 3.11-1.22 3.56-2.67 0.222-0.889 0.667-1.78 1.11-2.56 3.56-6 20.7-13.7 20.7-31.7-0.112-16.9-13.8-30.6-30.6-30.6s-30.4 13.7-30.4 30.4z"></path>
    </symbol>
    <symbol id="settings-a" viewBox="0 0 500 500">
      <g transform="matrix(1.02 0 0 1.02 -108 -35.7)" stroke-width=".98">
        <path d="m578 111h-54.8c-7.92-32.6-37.1-56.9-72.1-56.9s-64.2 24.3-72.1 56.9h-256c-9.66 0-17.5 7.84-17.5 17.5s7.84 17.5 17.5 17.5h256c7.92 32.6 37.1 56.9 72.1 56.9s64.2-24.3 72.1-56.9h54.8c9.66 0 17.5-7.84 17.5-17.5s-7.84-17.5-17.5-17.5zm-127 56.9c-21.7 0-39.4-17.7-39.4-39.4s17.7-39.4 39.4-39.4 39.4 17.7 39.4 39.4-17.7 39.4-39.4 39.4z"></path>
        <path d="m578 262h-256c-7.92-32.6-37.1-56.9-72.1-56.9s-64.2 24.3-72.1 56.9h-54.8c-9.66 0-17.5 7.84-17.5 17.5s7.84 17.5 17.5 17.5h54.8c7.92 32.6 37.1 56.9 72.1 56.9s64.2-24.3 72.1-56.9h256c9.66 0 17.5-7.84 17.5-17.5s-7.84-17.5-17.5-17.5zm-328 56.9c-21.7 0-39.4-17.7-39.4-39.4s17.7-39.4 39.4-39.4 39.4 17.7 39.4 39.4-17.7 39.4-39.4 39.4z"></path>
        <path d="m578 414h-54.8c-7.92-32.6-37.1-56.9-72.1-56.9s-64.2 24.3-72.1 56.9h-256c-9.66 0-17.5 7.84-17.5 17.5s7.84 17.5 17.5 17.5h256c7.92 32.6 37.1 56.9 72.1 56.9s64.2-24.3 72.1-56.9h54.8c9.66 0 17.5-7.84 17.5-17.5s-7.84-17.5-17.5-17.5zm-127 56.9c-21.7 0-39.4-17.7-39.4-39.4s17.7-39.4 39.4-39.4 39.4 17.7 39.4 39.4-17.7 39.4-39.4 39.4z"></path>
      </g>
    </symbol>
    <symbol id="settings-b" viewBox="0 0 500 500">
      <g transform="matrix(1.02 0 0 1.02 -108 -35.7)" stroke-width=".98">
        <path d="m578 111h-256c-7.92-32.6-37.1-56.9-72.1-56.9s-64.2 24.3-72.1 56.9h-54.8c-9.66 0-17.5 7.84-17.5 17.5s7.84 17.5 17.5 17.5h54.8c7.92 32.6 37.1 56.9 72.1 56.9s64.2-24.3 72.1-56.9h256c9.66 0 17.5-7.84 17.5-17.5s-7.84-17.5-17.5-17.5zm-328 56.9c-21.7 0-39.4-17.7-39.4-39.4s17.7-39.4 39.4-39.4 39.4 17.7 39.4 39.4-17.7 39.4-39.4 39.4z"></path>
        <path d="m578 262h-54.3c-7.92-32.6-37.1-56.9-72.1-56.9s-64.2 24.3-72.1 56.9h-257c-9.66 0-17.5 7.84-17.5 17.5s7.84 17.5 17.5 17.5h257c7.92 32.6 37.1 56.9 72.1 56.9s64.2-24.3 72.1-56.9h54.3c9.66 0 17.5-7.84 17.5-17.5s-7.84-17.5-17.5-17.5zm-126 56.9c-21.7 0-39.4-17.7-39.4-39.4s17.7-39.4 39.4-39.4 39.4 17.7 39.4 39.4-17.7 39.4-39.4 39.4z"></path>
        <path d="m578 414h-256c-7.92-32.6-37.1-56.9-72.1-56.9s-64.2 24.3-72.1 56.9h-54.7c-9.66 0-17.5 7.84-17.5 17.5s7.84 17.5 17.5 17.5h54.7c7.92 32.6 37.1 56.9 72.1 56.9s64.2-24.3 72.1-56.9h256c9.66 0 17.5-7.84 17.5-17.5s-7.84-17.5-17.5-17.5zm-328 56.9c-21.7 0-39.4-17.7-39.4-39.4s17.7-39.4 39.4-39.4 39.4 17.7 39.4 39.4-17.7 39.4-39.4 39.4z"></path>
      </g>
    </symbol>
    <symbol id="tag" viewBox="0 0 16 16">
      <path d="M2 2a1 1 0 0 1 1-1h4.586a1 1 0 0 1 .707.293l7 7a1 1 0 0 1 0 1.414l-4.586 4.586a1 1 0 0 1-1.414 0l-7-7A1 1 0 0 1 2 6.586V2zm3.5 4a1.5 1.5 0 1 0 0-3 1.5 1.5 0 0 0 0 3z"></path>
      <path d="M1.293 7.793A1 1 0 0 1 1 7.086V2a1 1 0 0 0-1 1v4.586a1 1 0 0 0 .293.707l7 7a1 1 0 0 0 1.414 0l.043-.043-7.457-7.457z"></path>
    </symbol>
    <symbol id="work" viewBox="0 0 100 100">
      <path d="m88.7 23.4h-16v-6.73c0-3-1.19-5.88-3.31-8s-5-3.31-8-3.31h-22.6c-3-6e-3 -5.89 1.18-8.01 3.3-2.13 2.12-3.32 5-3.32 8.01v6.71h-16c-3.01-0.0101-5.89 1.18-8.02 3.31-2.12 2.13-3.31 5.02-3.29 8.02v48.6c0 3 1.19 5.88 3.31 8s5 3.31 8 3.31h77.4c3 0 5.88-1.19 8-3.31s3.31-5 3.31-8v-48.6c0-3-1.19-5.88-3.31-8s-5-3.31-8-3.31zm-25 0h-27.1v-6.73c0-1.25 1.02-2.27 2.27-2.27h22.5c1.25 0.0116 2.25 1.03 2.25 2.27z"></path>
    </symbol>
  </defs>
</svg>
